<svg xmlns="http://www.w3.org/2000/svg"  viewBox="0 0 72 72" width="64px" height="64px"><path d="M 35.056641 12.982422 C 24.023641 13.931422 17.896484 17.648438 17.896484 17.648438 C 17.896484 17.648438 9 26.354734 9 43.177734 L 9 50.080078 L 12.632812 52.447266 C 22.038813 58.576266 25.286828 58.576172 26.673828 58.576172 L 30.880859 58.576172 L 33.285156 55.082031 C 34.159156 55.161031 35.067 55.207031 36 55.207031 C 36.933 55.207031 37.840844 55.161031 38.714844 55.082031 L 41.119141 58.576172 L 45.326172 58.576172 C 46.713172 58.576172 49.961188 58.576266 59.367188 52.447266 L 63 50.080078 L 63 43.177734 C 63 26.353734 54.103516 17.648438 54.103516 17.648438 C 54.103516 17.648437 47.142359 13.694422 36.943359 12.982422 L 36.074219 14.775391 C 36.058219 14.775391 36.022 14.771484 36 14.771484 C 35.978 14.771484 35.943688 14.775391 35.929688 14.775391 L 35.056641 12.982422 z M 30.59375 21.671875 L 31.744141 23.853516 C 31.744141 23.853516 33.573047 23.429688 35.998047 23.429688 C 38.423047 23.429687 40.253906 23.853516 40.253906 23.853516 L 41.404297 21.671875 C 45.113297 22.183875 49.128906 24.128906 49.128906 24.128906 C 49.128906 24.128906 55 30.928734 55 43.177734 L 55 45.744141 C 55 45.744141 47.585219 50.576172 45.324219 50.576172 L 43.132812 47.390625 C 44.495813 46.780625 46.353516 45.720703 46.353516 45.720703 L 45.673828 45.195312 C 45.673828 45.195312 41.329047 47.207031 35.998047 47.207031 C 30.667047 47.207031 26.324219 45.195312 26.324219 45.195312 L 25.644531 45.720703 C 25.644531 45.720703 27.503234 46.780625 28.865234 47.390625 L 26.673828 50.576172 C 24.414828 50.576172 17 45.744141 17 45.744141 L 17 43.177734 C 17 30.928734 22.869141 24.128906 22.869141 24.128906 C 22.869141 24.128906 26.88475 22.183875 30.59375 21.671875 z M 28.201172 32.800781 C 25.897172 32.800781 24.03125 34.899328 24.03125 37.486328 C 24.03125 40.074328 25.898172 42.171875 28.201172 42.171875 C 30.504172 42.171875 32.373047 40.074328 32.373047 37.486328 C 32.373047 34.898328 30.505172 32.800781 28.201172 32.800781 z M 43.798828 32.800781 C 41.494828 32.800781 39.626953 34.899328 39.626953 37.486328 C 39.626953 40.074328 41.495828 42.171875 43.798828 42.171875 C 46.101828 42.171875 47.96875 40.074328 47.96875 37.486328 C 47.96875 34.898328 46.102828 32.800781 43.798828 32.800781 z"/></svg>