<?xml version="1.0" ?><svg height="60px" version="1.1" viewBox="0 0 60 60" width="60px" xmlns="http://www.w3.org/2000/svg" xmlns:sketch="http://www.bohemiancoding.com/sketch/ns" xmlns:xlink="http://www.w3.org/1999/xlink"><title/><defs/><g fill="none" fill-rule="evenodd" id="black" stroke="none" stroke-width="1"><g id="wordpress"><path d="M30,60 C46.5685433,60 60,46.5685433 60,30 C60,13.4314567 46.5685433,0 30,0 C13.4314567,0 0,13.4314567 0,30 C0,46.5685433 13.4314567,60 30,60 Z" fill="#000000"/><path d="M13.6260464,21.0168965 C16.7081495,15.2857879 22.8891911,11.5384615 30.0162978,11.5384615 C34.6300083,11.5384615 38.8454186,13.4985007 42.0835568,16.2649887 C41.1584331,16.0865056 40.1483114,16.2870944 39.1312092,16.8671645 C36.750032,18.2287122 35.9714992,22.0824734 39.0589403,24.0179507 C40.9876158,25.2194366 41.6737595,28.22745 41.6092923,30.0646797 C41.5456465,31.9047749 37.1261586,40.3552946 37.1261586,40.3552946 L32.8232865,25.6267547 C32.8232865,25.6267547 32.6754638,24.5935177 32.6754638,24.2955001 C32.6754638,23.9197031 32.7998812,23.4595769 33.0322913,23.1967647 C33.1924326,23.0219658 33.4367506,22.6547655 33.7258261,22.6547655 L35.764958,22.6547655 L35.764958,21.0173059 L24.6782562,21.0173059 L24.6782562,22.6547655 L25.0223546,22.6547655 C25.3853414,22.6547655 25.7401159,23.1415004 26.0825718,23.491098 C26.4874417,23.9078315 26.99743,25.4756991 27.6141791,27.1021058 L29.2262677,32.3964222 L25.7520238,40.4003248 L21.9402515,24.4035724 C21.9402515,24.4035724 22.0531716,23.3072932 22.2835287,23.1210321 C22.4334044,22.9933103 22.6645827,22.6547655 22.9310742,22.6547655 L23.0357819,22.6547655 L23.0357819,21.0173059 L13.6260464,21.0173059 L13.6260464,21.0168965 Z M15.7994506,23.7968936 C15.7994506,23.7968936 14.9026596,22.6543562 13.9508457,22.6543562 L12.9850708,22.6543562 C12.0529666,24.7011807 11.5384615,27.450066 11.5384615,29.9692976 C11.5384615,37.5482795 16.2006249,44.0485848 22.8423806,46.8187571 L15.7994506,23.7968936 L15.7994506,23.7968936 Z M45.9175025,20.8707533 C46.2685814,22.5315467 46.1963125,24.5464407 45.5114007,26.7627423 C43.7247993,32.5294657 39.3020265,42.9031818 37.589747,46.8547812 C44.0167491,43.9941393 48.4945448,37.607228 48.4945448,30.181758 C48.4941341,26.7811638 47.5521751,23.5979423 45.9175025,20.8707533 L45.9175025,20.8707533 Z M30.3899608,36.4417661 L25.6653833,47.9465574 C27.0606653,48.2797804 28.5167188,48.4615385 30.0162978,48.4615385 C31.5688467,48.4615385 33.0749957,48.2695463 34.5154457,47.9129895 L30.3899608,36.4417661 L30.3899608,36.4417661 Z" fill="#FFFFFF"/></g></g></svg>